<svg width="22" height="19" viewBox="0 0 22 19" fill="none" xmlns="http://www.w3.org/2000/svg">
<path d="M10.7496 19C10.4988 19 10.2435 18.9552 9.98374 18.8656C9.72395 18.776 9.49552 18.6327 9.29845 18.4356L7.44413 16.7426C5.54503 15.0047 3.82956 13.2803 2.29774 11.5693C0.765912 9.85832 0 7.97265 0 5.91231C0 4.22819 0.564356 2.82178 1.69307 1.69307C2.82178 0.564356 4.22819 0 5.91231 0C6.86186 0 7.75766 0.201556 8.59972 0.604668C9.44177 1.00778 10.1584 1.5587 10.7496 2.25743C11.3409 1.5587 12.0575 1.00778 12.8996 0.604668C13.7416 0.201556 14.6374 0 15.587 0C17.2711 0 18.6775 0.564356 19.8062 1.69307C20.9349 2.82178 21.4993 4.22819 21.4993 5.91231C21.4993 7.97265 20.7379 9.8628 19.215 11.5827C17.6921 13.3027 15.9632 15.0316 14.0283 16.7694L12.2009 18.4356C12.0038 18.6327 11.7753 18.776 11.5156 18.8656C11.2558 18.9552 11.0005 19 10.7496 19ZM9.72843 4.40735C9.20886 3.6728 8.65347 3.11292 8.06224 2.72772C7.47101 2.34253 6.75436 2.14993 5.91231 2.14993C4.83734 2.14993 3.94154 2.50825 3.22489 3.22489C2.50825 3.94154 2.14993 4.83734 2.14993 5.91231C2.14993 6.84394 2.48138 7.8338 3.14427 8.8819C3.80717 9.92999 4.59995 10.9467 5.52263 11.9321C6.44531 12.9175 7.39486 13.8402 8.37129 14.7001C9.34771 15.5601 10.1405 16.2678 10.7496 16.8232C11.3588 16.2678 12.1516 15.5601 13.128 14.7001C14.1044 13.8402 15.054 12.9175 15.9767 11.9321C16.8993 10.9467 17.6921 9.92999 18.355 8.8819C19.0179 7.8338 19.3494 6.84394 19.3494 5.91231C19.3494 4.83734 18.991 3.94154 18.2744 3.22489C17.5578 2.50825 16.662 2.14993 15.587 2.14993C14.7449 2.14993 14.0283 2.34253 13.4371 2.72772C12.8458 3.11292 12.2904 3.6728 11.7709 4.40735C11.6455 4.58652 11.4932 4.72089 11.314 4.81047C11.1348 4.90005 10.9467 4.94484 10.7496 4.94484C10.5526 4.94484 10.3645 4.90005 10.1853 4.81047C10.0061 4.72089 9.85384 4.58652 9.72843 4.40735Z" fill="#2294FF"/>
<mask id="mask0_5_36" style="mask-type:alpha" maskUnits="userSpaceOnUse" x="8" y="0" width="14" height="19">
<rect x="8.20886" y="0.0252981" width="12.8996" height="18.7377" fill="#D9D9D9"/>
</mask>
<g mask="url(#mask0_5_36)">
</g>
</svg>
