<svg width="15" height="15" viewBox="0 0 15 15" fill="none" xmlns="http://www.w3.org/2000/svg">
<path d="M7.5 0C3.36675 0 0 3.36675 0 7.5C0 11.6333 3.36675 15 7.5 15C11.6333 15 15 11.6333 15 7.5C15 3.36675 11.6333 0 7.5 0ZM7.5 1.5C10.8226 1.5 13.5 4.17741 13.5 7.5C13.5 8.8898 13.0269 10.1629 12.2388 11.1782L3.82178 2.76123C4.83708 1.97305 6.1102 1.5 7.5 1.5ZM2.76123 3.82178L11.1782 12.2388C10.1629 13.0269 8.8898 13.5 7.5 13.5C4.17741 13.5 1.5 10.8226 1.5 7.5C1.5 6.1102 1.97305 4.83708 2.76123 3.82178Z" fill="white"/>
</svg>
