<svg width="24" height="24" viewBox="0 0 24 24" fill="none" xmlns="http://www.w3.org/2000/svg">
<mask id="mask0_402_30" style="mask-type:alpha" maskUnits="userSpaceOnUse" x="0" y="0" width="24" height="24">
<rect width="24" height="24" fill="#D9D9D9"/>
</mask>
<g mask="url(#mask0_402_30)">
<path d="M10.9217 12.1238L8.5175 14.528C8.36724 14.6782 8.2924 14.8553 8.29299 15.0592C8.29359 15.2631 8.36946 15.4406 8.52059 15.5917C8.67174 15.7429 8.84822 15.8177 9.05004 15.8162C9.25186 15.8147 9.4279 15.7389 9.57816 15.5886L11.9823 13.1844L14.4042 15.6063C14.5544 15.7566 14.7315 15.8314 14.9354 15.8308C15.1393 15.8302 15.3168 15.7543 15.4679 15.6032C15.6191 15.4521 15.6939 15.2756 15.6924 15.0738C15.691 14.8719 15.6151 14.6959 15.4648 14.5456L13.043 12.1238L15.5886 9.5782C15.7388 9.42794 15.8137 9.25087 15.8131 9.04699C15.8125 8.8431 15.7366 8.66558 15.5855 8.51445C15.4343 8.36331 15.2578 8.28847 15.056 8.28995C14.8542 8.29142 14.6782 8.36728 14.5279 8.51754L11.9823 11.0631L9.45442 8.53522C9.30416 8.38496 9.12708 8.31013 8.9232 8.31072C8.71931 8.31132 8.54179 8.38718 8.39066 8.53832C8.23952 8.68946 8.16468 8.86594 8.16616 9.06776C8.16763 9.26958 8.2435 9.44562 8.39376 9.59588L10.9217 12.1238ZM4.93363 19.0758C3.95861 18.1008 3.22793 16.9989 2.7416 15.7701C2.25528 14.5413 2.01212 13.2846 2.01212 12C2.01212 10.7155 2.25572 9.45834 2.74293 8.22867C3.23013 6.99902 3.96174 5.89617 4.93777 4.92014C5.9138 3.94411 7.01665 3.21249 8.24631 2.7253C9.47598 2.23809 10.7302 1.99743 12.0088 2.00332C13.2875 2.00922 14.5417 2.25577 15.7714 2.74298C17.001 3.23017 18.1039 3.96179 19.0799 4.93782C20.0559 5.91385 20.7876 7.01669 21.2747 8.24635C21.762 9.47602 22.0056 10.7273 22.0056 12C22.0056 13.2728 21.761 14.525 21.2719 15.7565C20.7829 16.9881 20.0508 18.0914 19.0758 19.0664C18.1007 20.0414 16.9988 20.7721 15.77 21.2584C14.5413 21.7448 13.2886 21.9898 12.0121 21.9935C10.7356 21.9972 9.48046 21.7556 8.24675 21.2687C7.01304 20.7818 5.90866 20.0508 4.93363 19.0758Z" fill="#2294FF"/>
</g>
</svg>
