<svg width="19" height="17" viewBox="0 0 19 17" fill="none" xmlns="http://www.w3.org/2000/svg">
<path d="M9.16667 16.2021C8.95278 16.2021 8.73507 16.1639 8.51354 16.0875C8.29201 16.0111 8.09722 15.8889 7.92917 15.7208L6.34792 14.2771C4.72847 12.7951 3.26563 11.3247 1.95938 9.86563C0.653125 8.4066 0 6.79861 0 5.04167C0 3.60556 0.48125 2.40625 1.44375 1.44375C2.40625 0.48125 3.60556 0 5.04167 0C5.85139 0 6.61528 0.171875 7.33333 0.515625C8.05139 0.859375 8.6625 1.32917 9.16667 1.925C9.67083 1.32917 10.2819 0.859375 11 0.515625C11.7181 0.171875 12.4819 0 13.2917 0C14.7278 0 15.9271 0.48125 16.8896 1.44375C17.8521 2.40625 18.3333 3.60556 18.3333 5.04167C18.3333 6.79861 17.684 8.41042 16.3854 9.87708C15.0868 11.3438 13.6125 12.8181 11.9625 14.3L10.4042 15.7208C10.2361 15.8889 10.0413 16.0111 9.81979 16.0875C9.59826 16.1639 9.38056 16.2021 9.16667 16.2021ZM8.29583 3.75833C7.85278 3.13194 7.37917 2.65451 6.875 2.32604C6.37083 1.99757 5.75972 1.83333 5.04167 1.83333C4.125 1.83333 3.36111 2.13889 2.75 2.75C2.13889 3.36111 1.83333 4.125 1.83333 5.04167C1.83333 5.83611 2.11597 6.68021 2.68125 7.57396C3.24653 8.46771 3.92257 9.33472 4.70938 10.175C5.49618 11.0153 6.3059 11.8021 7.13854 12.5354C7.97118 13.2688 8.64722 13.8722 9.16667 14.3458C9.68611 13.8722 10.3622 13.2688 11.1948 12.5354C12.0274 11.8021 12.8372 11.0153 13.624 10.175C14.4108 9.33472 15.0868 8.46771 15.6521 7.57396C16.2174 6.68021 16.5 5.83611 16.5 5.04167C16.5 4.125 16.1944 3.36111 15.5833 2.75C14.9722 2.13889 14.2083 1.83333 13.2917 1.83333C12.5736 1.83333 11.9625 1.99757 11.4583 2.32604C10.9542 2.65451 10.4806 3.13194 10.0375 3.75833C9.93056 3.91111 9.8007 4.02569 9.64792 4.10208C9.49514 4.17847 9.33472 4.21667 9.16667 4.21667C8.99861 4.21667 8.83819 4.17847 8.68542 4.10208C8.53264 4.02569 8.40278 3.91111 8.29583 3.75833Z" fill="#2294FF"/>
</svg>
