<svg width="24" height="24" viewBox="0 0 24 24" fill="none" xmlns="http://www.w3.org/2000/svg">
<mask id="mask0_147_18" style="mask-type:alpha" maskUnits="userSpaceOnUse" x="0" y="0" width="24" height="24">
<rect width="24" height="24" fill="#AEAEAE"/>
</mask>
<g mask="url(#mask0_147_18)">
<path d="M4.99993 21C4.7166 21 4.47894 20.904 4.28694 20.712C4.0956 20.5207 3.99993 20.2833 3.99993 20V11.625L2.99993 12.4C2.7666 12.5667 2.5166 12.6333 2.24993 12.6C1.98327 12.5667 1.7666 12.4333 1.59993 12.2C1.43327 11.9667 1.3666 11.7167 1.39993 11.45C1.43327 11.1833 1.55827 10.9667 1.77493 10.8L3.99993 9.1V7C3.99993 6.71667 4.0956 6.479 4.28694 6.287C4.47894 6.09567 4.7166 6 4.99993 6C5.28327 6 5.52093 6.09567 5.71293 6.287C5.90427 6.479 5.99994 6.71667 5.99994 7V7.575L11.3999 3.475C11.4833 3.40833 11.5749 3.354 11.6749 3.312C11.7749 3.27067 11.8833 3.25 11.9999 3.25C12.1166 3.25 12.2249 3.27067 12.3249 3.312C12.4249 3.354 12.5166 3.40833 12.5999 3.475L22.2249 10.8C22.4416 10.9667 22.5666 11.1833 22.5999 11.45C22.6333 11.7167 22.5666 11.9667 22.3999 12.2C22.2333 12.4167 22.0166 12.5417 21.7499 12.575C21.4833 12.6083 21.2416 12.5417 21.0249 12.375L19.9999 11.625V20C19.9999 20.2833 19.9039 20.5207 19.7119 20.712C19.5206 20.904 19.2833 21 18.9999 21H4.99993ZM5.99994 19H10.9999V16C10.9999 15.7167 11.0959 15.479 11.2879 15.287C11.4793 15.0957 11.7166 15 11.9999 15C12.2833 15 12.5209 15.0957 12.7129 15.287C12.9043 15.479 12.9999 15.7167 12.9999 16V19H17.9999V10.1L11.9999 5.525L5.99994 10.1V19Z" fill="#AEAEAE"/>
</g>
</svg>
