<svg width="24" height="24" viewBox="0 0 24 24" fill="none" xmlns="http://www.w3.org/2000/svg">
<mask id="mask0_147_26" style="mask-type:alpha" maskUnits="userSpaceOnUse" x="0" y="0" width="24" height="24">
<rect width="24" height="24" fill="#D9D9D9"/>
</mask>
<g mask="url(#mask0_147_26)">
<path d="M11.2167 12.9001V16.1668C11.2167 16.4029 11.2968 16.6008 11.4571 16.7605C11.6174 16.9203 11.816 17.0001 12.0529 17.0001C12.2899 17.0001 12.4875 16.9203 12.6458 16.7605C12.8042 16.6008 12.8833 16.4029 12.8833 16.1668V12.9001H16.1667C16.4028 12.9001 16.6007 12.82 16.7604 12.6597C16.9201 12.4994 17 12.3008 17 12.0639C17 11.8269 16.9201 11.6293 16.7604 11.471C16.6007 11.3126 16.4028 11.2335 16.1667 11.2335H12.8833V7.83345C12.8833 7.59735 12.8032 7.39943 12.6429 7.2397C12.4826 7.07998 12.284 7.00012 12.0471 7.00012C11.8101 7.00012 11.6125 7.07998 11.4542 7.2397C11.2958 7.39943 11.2167 7.59735 11.2167 7.83345V11.2335H7.83333C7.59723 11.2335 7.39931 11.3136 7.23958 11.4739C7.07986 11.6342 7 11.8328 7 12.0697C7 12.3067 7.07986 12.5043 7.23958 12.6626C7.39931 12.821 7.59723 12.9001 7.83333 12.9001H11.2167ZM12.0044 22.0001C10.6241 22.0001 9.32684 21.7376 8.11278 21.2126C6.89871 20.6876 5.83889 19.9723 4.93333 19.0668C4.02778 18.1612 3.3125 17.101 2.7875 15.8861C2.2625 14.6712 2 13.3731 2 11.9918C2 10.6105 2.2625 9.31236 2.7875 8.09747C3.3125 6.88257 4.02778 5.82512 4.93333 4.92512C5.83889 4.02512 6.89912 3.31262 8.114 2.78762C9.3289 2.26262 10.627 2.00012 12.0083 2.00012C13.3897 2.00012 14.6878 2.26262 15.9027 2.78762C17.1176 3.31262 18.175 4.02512 19.075 4.92512C19.975 5.82512 20.6875 6.88346 21.2125 8.10012C21.7375 9.31679 22 10.6153 22 11.9957C22 13.3761 21.7375 14.6733 21.2125 15.8873C20.6875 17.1014 19.975 18.1602 19.075 19.0637C18.175 19.9672 17.1167 20.6825 15.9 21.2096C14.6833 21.7366 13.3848 22.0001 12.0044 22.0001ZM12.0083 20.3335C14.325 20.3335 16.2917 19.5224 17.9084 17.9001C19.525 16.2779 20.3334 14.3085 20.3334 11.9918C20.3334 9.67513 19.5261 7.70846 17.9115 6.09177C16.2969 4.47511 14.3264 3.66677 12 3.66677C9.68888 3.66677 7.72222 4.47406 6.1 6.08865C4.47777 7.70325 3.66665 9.67374 3.66665 12.0001C3.66665 14.3112 4.47777 16.2779 6.1 17.9001C7.72222 19.5224 9.69166 20.3335 12.0083 20.3335Z" fill="#2294FF"/>
</g>
</svg>
