<svg width="64" height="80" viewBox="0 0 64 80" fill="none" xmlns="http://www.w3.org/2000/svg">
<path d="M24 0L20 4H4C1.6 4 0 5.6 0 8C0 10.4 1.6 12 4 12H12H52H60C62.4 12 64 10.4 64 8C64 5.6 62.4 4 60 4H44L40 0H24ZM4 20V72C4 76.4 7.6 80 12 80H52C56.4 80 60 76.4 60 72V20H4ZM20 28C22.4 28 24 29.6 24 32V68C24 70.4 22.4 72 20 72C17.6 72 16 70.4 16 68V32C16 29.6 17.6 28 20 28ZM44 28C46.4 28 48 29.6 48 32V68C48 70.4 46.4 72 44 72C41.6 72 40 70.4 40 68V32C40 29.6 41.6 28 44 28Z" fill="#AFD8FF"/>
</svg>
