<svg width="168" height="107" viewBox="0 0 168 107" fill="none" xmlns="http://www.w3.org/2000/svg">
<path d="M151.2 0H16.8C7.518 0 0 5.98531 0 13.375V93.625C0 101.015 7.518 107 16.8 107H151.2C160.482 107 168 101.015 168 93.625V13.375C168 5.98531 160.482 0 151.2 0ZM30.4752 81.5407L51.3912 60.1273C53.0376 58.4421 56.2212 58.4019 57.9348 60.0471L75.6 76.9731L101.623 50.2766C103.32 48.5312 106.638 48.5579 108.301 50.3234L137.76 81.5875C139.835 83.7944 137.861 86.9375 134.4 86.9375H33.7848C30.2904 86.9375 28.3248 83.7342 30.4752 81.5407Z" fill="#AFD8FF"/>
</svg>
