<svg width="24" height="24" viewBox="0 0 24 24" fill="none" xmlns="http://www.w3.org/2000/svg">
<path d="M22.5486 0.000802023C22.1823 0.0150824 21.8347 0.215382 21.5794 0.559266L7.06907 19.5471L2.42688 13.4724C2.29698 13.2954 2.14139 13.154 1.96922 13.0566C1.79705 12.9593 1.61177 12.9078 1.42421 12.9053C1.23666 12.9028 1.05062 12.9493 0.87697 13.0421C0.703323 13.1349 0.545568 13.272 0.412942 13.4456C0.280316 13.6191 0.175487 13.8256 0.104592 14.0528C0.0336983 14.28 -0.00183519 14.5235 7.29697e-05 14.7689C0.00198113 15.0143 0.0412923 15.2568 0.115705 15.4821C0.190117 15.7074 0.298135 15.911 0.433432 16.081L6.07235 23.4599C6.33674 23.8057 6.69525 24 7.06907 24C7.44289 24 7.80141 23.8057 8.0658 23.4599L23.5728 3.16784C23.7765 2.90872 23.9157 2.57512 23.972 2.21074C24.0283 1.84637 23.9992 1.46823 23.8885 1.12588C23.7778 0.78352 23.5906 0.49292 23.3515 0.292159C23.1124 0.0913986 22.8325 -0.0101564 22.5486 0.000802023Z" fill="white"/>
</svg>
