<svg width="15" height="14" viewBox="0 0 15 14" fill="none" xmlns="http://www.w3.org/2000/svg">
<path fill-rule="evenodd" clip-rule="evenodd" d="M0 12.375C0 11.7537 0.50368 11.25 1.125 11.25H13.875C14.4963 11.25 15 11.7537 15 12.375C15 12.9963 14.4963 13.5 13.875 13.5H1.125C0.50368 13.5 0 12.9963 0 12.375ZM0 6.75C0 6.12868 0.50368 5.625 1.125 5.625H13.875C14.4963 5.625 15 6.12868 15 6.75C15 7.37132 14.4963 7.875 13.875 7.875H1.125C0.50368 7.875 0 7.37132 0 6.75ZM0 1.125C0 0.50368 0.50368 0 1.125 0H13.875C14.4963 0 15 0.50368 15 1.125C15 1.74632 14.4963 2.25 13.875 2.25H1.125C0.50368 2.25 0 1.74632 0 1.125Z" fill="#2294FF"/>
</svg>
