<svg width="24" height="24" viewBox="0 0 24 24" fill="none" xmlns="http://www.w3.org/2000/svg">
<mask id="mask0_2_143" style="mask-type:alpha" maskUnits="userSpaceOnUse" x="0" y="0" width="24" height="24">
<rect width="24" height="24" fill="#D9D9D9"/>
</mask>
<g mask="url(#mask0_2_143)">
<path d="M11.9937 14.7067C11.8785 14.7067 11.7681 14.6855 11.6624 14.6433C11.5567 14.601 11.4586 14.535 11.3681 14.4455L7.43796 10.5154C7.27287 10.3491 7.19371 10.1401 7.20047 9.88847C7.20724 9.63686 7.29316 9.42724 7.45826 9.25961C7.64139 9.07393 7.85246 8.98785 8.09146 9.00138C8.33047 9.01491 8.53703 9.10422 8.71115 9.26931L11.9945 12.5527L15.2846 9.26255C15.4523 9.09746 15.6628 9.01153 15.9164 9.00477C16.1699 8.998 16.3792 9.08728 16.5443 9.27259C16.7274 9.43986 16.8122 9.64867 16.7987 9.89902C16.7851 10.1494 16.6958 10.3616 16.5307 10.5357L12.6209 14.4455C12.5301 14.535 12.4316 14.601 12.3255 14.6433C12.2194 14.6855 12.1088 14.7067 11.9937 14.7067Z" fill="#1C1B1F"/>
</g>
</svg>
