<svg width="22" height="22" viewBox="0 0 22 22" fill="none" xmlns="http://www.w3.org/2000/svg">
<mask id="mask0_5_36" style="mask-type:alpha" maskUnits="userSpaceOnUse" x="0" y="0" width="22" height="22">
<rect width="22" height="22" fill="#D9D9D9"/>
</mask>
<g mask="url(#mask0_5_36)">
<path d="M11 18.9521C10.7862 18.9521 10.5684 18.9139 10.3469 18.8375C10.1254 18.7611 9.9306 18.6389 9.76254 18.4708L8.18129 17.0271C6.56185 15.5451 5.099 14.0747 3.79275 12.6156C2.4865 11.1566 1.83337 9.54861 1.83337 7.79167C1.83337 6.35556 2.31462 5.15625 3.27712 4.19375C4.23962 3.23125 5.43893 2.75 6.87504 2.75C7.68476 2.75 8.44865 2.92188 9.16671 3.26563C9.88476 3.60938 10.4959 4.07917 11 4.675C11.5042 4.07917 12.1153 3.60938 12.8334 3.26563C13.5514 2.92188 14.3153 2.75 15.125 2.75C16.5612 2.75 17.7605 3.23125 18.723 4.19375C19.6855 5.15625 20.1667 6.35556 20.1667 7.79167C20.1667 9.54861 19.5174 11.1604 18.2188 12.6271C16.9202 14.0938 15.4459 15.5681 13.7959 17.05L12.2375 18.4708C12.0695 18.6389 11.8747 18.7611 11.6532 18.8375C11.4316 18.9139 11.2139 18.9521 11 18.9521ZM10.1292 6.50833C9.68615 5.88194 9.21254 5.40451 8.70837 5.07604C8.20421 4.74757 7.5931 4.58333 6.87504 4.58333C5.95837 4.58333 5.19449 4.88889 4.58337 5.5C3.97226 6.11111 3.66671 6.875 3.66671 7.79167C3.66671 8.58611 3.94935 9.43021 4.51462 10.324C5.0799 11.2177 5.75594 12.0847 6.54275 12.925C7.32956 13.7653 8.13928 14.5521 8.97192 15.2854C9.80455 16.0188 10.4806 16.6222 11 17.0958C11.5195 16.6222 12.1955 16.0188 13.0282 15.2854C13.8608 14.5521 14.6705 13.7653 15.4573 12.925C16.2441 12.0847 16.9202 11.2177 17.4855 10.324C18.0507 9.43021 18.3334 8.58611 18.3334 7.79167C18.3334 6.875 18.0278 6.11111 17.4167 5.5C16.8056 4.88889 16.0417 4.58333 15.125 4.58333C14.407 4.58333 13.7959 4.74757 13.2917 5.07604C12.7875 5.40451 12.3139 5.88194 11.8709 6.50833C11.7639 6.66111 11.6341 6.77569 11.4813 6.85208C11.3285 6.92847 11.1681 6.96667 11 6.96667C10.832 6.96667 10.6716 6.92847 10.5188 6.85208C10.366 6.77569 10.2362 6.66111 10.1292 6.50833Z" fill="#2294FF"/>
</g>
</svg>
