<svg width="20" height="20" viewBox="0 0 20 20" fill="none" xmlns="http://www.w3.org/2000/svg">
<path d="M1.14498 18.8533C1.41127 19.125 1.71001 19.25 2.08331 19.25H17.9167C18.29 19.25 18.5887 19.125 18.855 18.8533C19.1218 18.5811 19.25 18.2692 19.25 17.8746V16.8119C19.25 16.1622 19.0914 15.6274 18.7957 15.1791C18.4861 14.7095 18.0829 14.3564 17.5751 14.1105C16.2526 13.4982 14.9715 13.0356 13.7313 12.7193C12.4996 12.4052 11.2563 12.2484 10 12.2484C8.74232 12.2484 7.49394 12.402 6.25358 12.7098M1.14498 18.8533L6.07291 11.9819M1.14498 18.8533C0.878168 18.5811 0.75 18.2692 0.75 17.8746V16.8119C0.75 16.1622 0.908619 15.6274 1.20425 15.1791C1.5165 14.7056 1.91569 14.3524 2.40992 14.1077M1.14498 18.8533L2.08334 13.4325M6.25358 12.7098L6.07291 11.9819M6.25358 12.7098C6.25359 12.7098 6.25359 12.7098 6.2536 12.7098L6.07291 11.9819M6.25358 12.7098C5.01064 13.0184 3.72958 13.483 2.40992 14.1077M6.07291 11.9819C4.7743 12.3043 3.44445 12.7878 2.08334 13.4325M2.40992 14.1077C2.41159 14.1069 2.41327 14.1061 2.41494 14.1052L2.08334 13.4325M2.40992 14.1077C2.40808 14.1086 2.40624 14.1095 2.40439 14.1103L2.08334 13.4325M10 9.02682C8.81348 9.02682 7.86831 8.63482 7.1085 7.85969C6.34778 7.08359 5.95834 6.11202 5.95834 4.88841C5.95834 3.6648 6.34779 2.69323 7.10851 1.91715C7.86832 1.142 8.81349 0.75 10 0.75C11.1865 0.75 12.1317 1.142 12.8915 1.91715C13.6522 2.69323 14.0417 3.6648 14.0417 4.88841C14.0417 6.11202 13.6522 7.0836 12.8915 7.8597C12.1317 8.63483 11.1865 9.02682 10 9.02682Z" stroke="#AEAEAE" stroke-width="1.5"/>
</svg>
